<svg id="Layer_1" enable-background="new 0 0 511 511" height="512" viewBox="0 0 511 511" width="512" xmlns="http://www.w3.org/2000/svg"><g><g><path d="m511 255.5c0 141.109-115.461 224.259-256.57 224.259-112.41 0-206.795-41.352-240.973-142.216-8.725-25.75-13.457-53.344-13.457-82.043 0-141.109 114.391-255.5 255.5-255.5s255.5 114.391 255.5 255.5z" fill="#00b7f0"/></g><g fill="#0091c8"><path d="m239.63 271.132v126.841h19.302 4.857 38.142v-111.485c0-8.481-6.875-15.356-15.356-15.356-6.779 0-39.671 0-46.945 0z"/><path d="m163.491 202.871v195.101h19.554 3.758 36.826v-182.694c0-6.852-5.555-12.407-12.407-12.407-15.897 0-31.777 0-47.731 0z"/><path d="m509.875 231.557c-1.57-15.977-24.63-17.132-27.724-1.337-.11.559-.221 1.119-.335 1.678-3.368 16.598-27.808 14.149-27.808-2.787v-4.042c0-8.309-6.735-15.044-15.044-15.044h-43.427v166.691c-5.247 4.403-10.663 8.611-16.257 12.588v-111.085-18.992c0-8.043-6.52-14.563-14.563-14.563h-46.529v153.308c12.567 0 15.704 17.393 3.958 21.858-.091.034-.19.062-.294.082-1.481.288-2.868-.79-3.222-2.257-.856-3.548-4.052-6.183-7.862-6.183h-9.028v15.138c-1.261.36-2.531.697-3.799 1.038h-14.988c-4.467 0-8.088-3.621-8.088-8.088s-3.621-8.088-8.088-8.088h-9.028v16.176h-18.787c-4.467 0-8.088-3.621-8.088-8.088s-3.621-8.088-8.088-8.088h-9.028v16.176h-18.787c-4.467 0-8.088-3.621-8.088-8.088s-3.621-8.088-8.088-8.088h-9.028v16.176h-4.925c-6.225-1.676-12.357-3.577-18.384-5.701-2.146-.756-3.566-2.803-3.566-5.078 0-2.981-2.417-5.398-5.398-5.398h-11.718v2.141c-.101-.046-.202-.092-.303-.138-7.919-3.614-5.278-15.503 3.427-15.503h18.339v-244.538c0-6.852-5.555-12.407-12.407-12.407h-48.689v215.44c0 13.13-16.262 20.144-25.869 9.384-2.327-2.608-.47-6.735 3.025-6.735 4.159 0 7.53-3.371 7.53-7.53v-2.056c0-4.159-3.371-7.53-7.53-7.53h-1.379c-4.159 0-7.53-3.371-7.53-7.53v-11.814c0-4.159 3.371-7.53 7.53-7.53h1.377c4.159 0 7.53-3.371 7.53-7.53v-2.056c0-4.159-3.371-7.53-7.53-7.53h-1.377c-4.159 0-7.53-3.371-7.53-7.53v-11.816c0-4.159 3.371-7.53 7.53-7.53h1.377c4.159 0 7.53-3.371 7.53-7.53v-2.056c0-4.159-3.371-7.53-7.53-7.53h-1.377c-4.159 0-7.53-3.371-7.53-7.53v-11.814c0-4.159 3.371-7.53 7.53-7.53h1.377c4.159 0 7.53-3.371 7.53-7.53v-2.056c0-4.159-3.371-7.53-7.53-7.53h-1.377c-4.159 0-7.53-3.371-7.53-7.53v-11.816c0-4.159 3.371-7.53 7.53-7.53h1.377c4.159 0 7.53-3.371 7.53-7.53v-2.056c0-4.159-3.371-7.53-7.53-7.53h-1.377c-4.159 0-7.53-3.371-7.53-7.53v-11.816c0-4.159 3.371-7.53 7.53-7.53h1.377c4.159 0 7.53-3.371 7.53-7.53v-2.056c0-4.159-3.371-7.53-7.53-7.53h-1.377c-4.159 0-7.53-3.371-7.53-7.53 0-3.922-2.999-7.141-6.829-7.495-3.611 5.048-7.044 10.231-10.287 15.544v205.568c0 6.094-7.833 9.451-12.26 3.392-4.453-6.092-13.961-1.129-11.537 6.018 6.08 17.931 14.097 34.968 23.798 50.865v.04c5.229 8.566 10.946 16.802 17.116 24.665v-.015c3.909 4.983 8.088 9.897 12.339 14.557h-.024c5.448 5.971 11.173 11.685 17.158 17.116h.02c44.794 40.648 104.863 66.218 171.534 66.235.027 0 .054.001.081.001s.054-.001.081-.001c65.458-.016 125.892-24.799 171.555-66.235 59.098-53.628 90.314-131.9 82.74-213.211z"/><path d="m126.637 97.377 126.356 110.759c-2.683 12.344 7.155 23.614 19.141 23.462 8.336-.106 15.544-5.527 18.087-13.201 1.664-5.021 5.486-9.038 10.332-11.159l24.873-10.885c4.587-2.008 9.9-2.005 14.307.373 2.718 1.466 5.826 2.3 9.132 2.3 7.487 0 13.977-4.255 17.191-10.477 2.27-4.396 6.226-7.679 11.067-8.701l46.142-9.743-3.247 3.995c-2.236 2.751-1.818 6.794.933 9.029 2.751 2.236 6.793 1.818 9.029-.933l16.13-19.847c2.83-3.482 1.305-8.718-2.951-10.137l-24.26-8.089c-3.363-1.121-6.998.696-8.119 4.059l-2.031 6.09 10.61 3.537-54.22 11.449c-3.439-5.356-9.435-8.914-16.273-8.914-10.682 0-19.341 8.659-19.341 19.341 0 .285.03.562.043.843l-43.225 18.917c-3.543-3.995-8.7-6.527-14.459-6.527-4.536 0-8.699 1.573-11.997 4.188l-119.582-104.819c-3.498-3.066-5.657-7.373-6.046-12.008-.818-9.749-9.044-17.656-19.271-17.656-11.386 0-20.474 9.839-19.226 21.479 1.582 14.732 18.85 22.378 30.875 13.275z"/></g><g><g><path d="m69.886 85.413h367.865v4.279h-367.865z" fill="#fff"/></g><g><path d="m69.886 117.247h367.865v4.279h-367.865z" fill="#fff"/></g><g><path d="m69.886 371.92h367.865v4.279h-367.865z" fill="#fff"/></g><g><path d="m69.886 276.418h367.865v4.279h-367.865z" fill="#fff"/></g><g><path d="m69.886 308.252h367.865v4.279h-367.865z" fill="#fff"/></g><g><path d="m69.886 340.086h367.865v4.279h-367.865z" fill="#fff"/></g><g><path d="m69.886 244.584h367.865v4.279h-367.865z" fill="#fff"/></g><g><path d="m69.886 212.75h367.865v4.279h-367.865z" fill="#fff"/></g><g><path d="m69.886 180.916h367.865v4.279h-367.865z" fill="#fff"/></g><g><path d="m69.886 149.082h367.865v4.279h-367.865z" fill="#fff"/></g></g><g><g><g><g><path d="m69.886 140.704h58.471v256.947h-58.471z" fill="#8757f3"/></g><g><path d="m69.886 140.704h21.991v256.947h-21.991z" fill="#6a2bc2"/></g><g><path d="m88.884 140.704h39.473v256.947h-39.473z" fill="#8757f3"/></g><g><path d="m69.886 140.704h21.991v256.947h-21.991z" fill="#6a2bc2"/></g></g><g><g><path d="m379.279 213.582h58.471v184.068h-58.471z" fill="#8757f3"/></g><g><path d="m399.013 209.703h38.738v187.948h-38.738z" fill="#fec502"/></g><g><path d="m379.279 209.703h22.668v187.948h-22.668z" fill="#ffa50a"/></g></g><g><g><path d="m241.489 270.81h40.355v126.841h-40.355z" fill="#fb3d80"/></g><g><path d="m223.373 270.81h22.674v126.841h-22.674z" fill="#e21e69"/></g><g><path d="m301.931 277.897h58.472v119.754h-58.472z" fill="#8757f3"/></g><g><path d="m320.293 244.342h40.11v153.308h-40.11z" fill="#8757f3"/></g><g><path d="m301.931 244.342h22.674v153.308h-22.674z" fill="#6a2bc2"/></g></g><g><g><path d="m166.246 202.549h39.459v195.101h-39.459z" fill="#fff"/></g><g><path d="m147.234 202.549h22.666v195.101h-22.666z" fill="#f5f0f0"/></g></g></g><g><path d="m487.624 444.443h-466.607v-337.785h17.116v320.669h449.491z" fill="#b6fff6"/></g><g><path d="m251.891 221.098-157.001-137.621 8.462-9.653 150.866 132.243 75.689-33.124 84.208-17.781 2.652 12.56-82.919 17.509z" fill="#b6fff6"/></g><g><circle cx="255.626" cy="211.937" fill="#fec502" r="19.341"/></g><g><circle cx="98.731" cy="81.642" fill="#fb3d80" r="19.341"/></g><g><circle cx="332.609" cy="179.363" fill="#8757f3" r="19.341"/></g><g><path d="m409.674 186.855-9.962-8.096 14.325-17.625-21.546-7.184 4.061-12.179 39.153 13.055z" fill="#fb3d80"/></g><g><path d="m65.522 411.15h17.116v24.734h-17.116z" fill="#b6fff6"/></g><g><path d="m109.514 411.15h17.116v24.734h-17.116z" fill="#b6fff6"/></g><g><path d="m153.506 411.15h17.116v24.734h-17.116z" fill="#b6fff6"/></g><g><path d="m197.497 411.15h17.116v24.734h-17.116z" fill="#b6fff6"/></g><g><path d="m241.489 411.15h17.116v24.734h-17.116z" fill="#b6fff6"/></g><g><path d="m285.481 411.15h17.116v24.734h-17.116z" fill="#b6fff6"/></g><g><path d="m329.473 411.15h17.116v24.734h-17.116z" fill="#b6fff6"/></g><g><path d="m29.837 121.718h24.734v17.116h-24.734z" fill="#b6fff6"/></g><g><path d="m29.837 165.71h24.734v17.116h-24.734z" fill="#b6fff6"/></g><g><path d="m29.837 209.703h24.734v17.116h-24.734z" fill="#b6fff6"/></g><g><path d="m29.837 253.694h24.734v17.116h-24.734z" fill="#b6fff6"/></g><g><path d="m29.837 297.686h24.734v17.116h-24.734z" fill="#b6fff6"/></g><g><path d="m29.837 341.677h24.734v17.116h-24.734z" fill="#b6fff6"/></g><g><path d="m29.837 385.669h24.734v17.116h-24.734z" fill="#b6fff6"/></g><g><path d="m373.465 411.15h17.116v24.734h-17.116z" fill="#b6fff6"/></g><g><path d="m417.456 411.15h17.116v24.734h-17.116z" fill="#b6fff6"/></g><g><path d="m461.448 411.15h17.116v24.734h-17.116z" fill="#b6fff6"/></g></g></g></svg>